# xmcd
#
# Track frame offsets:
#	150
#	19499
#	30517
#	40727
#	55033
#	64811
#	75822
#	86339
#	98729
#	108598
#	118244
#	131274
#	144361
#	157828
#	167732
#	181653
#	193695
#	207332
#	220093
#	229928
#	240400
#	250557
#
# Disc length: 3492 seconds
# Revision: 0
# Processed by: cddbd v1.5.2PL0 Copyright (c) Steve Scherf et al.
# Submitted via: dBpowerAMP V12.0
#
DISCID=130da216
DTITLE=Tammy Wynette - Bedtime Story and My Man
DYEAR=2016
DGENRE=Country
TTITLE0=Bedtime Story
TTITLE1=That's When I Feel It
TTITLE2=Me Home And Love Me
TTITLE3=If This Is Our Last Time
TTITLE4=Tonight My Baby's Coming Home
TTITLE5=Love's The Answer
TTITLE6=I'm Gonna Keep On Loving Him
TTITLE7=Just As Soon As I Get Over Loving You
TTITLE8=I Got Me A Man
TTITLE9=Your Love's Been A Long Time Coming
TTITLE10=Reach Out Your Hand
TTITLE11=My Man
TTITLE12=Things I Love To Do
TTITLE13=Hold On (To The Love I Got)
TTITLE14=Loving You Could Never Be Better
TTITLE15='Till I Get It Right
TTITLE16=Walk Softly On The Bridges
TTITLE17=The Bridge Of Love
TTITLE18=You Can't Hang On
TTITLE19=The Happiest Girl In The Whole U.S.A.
TTITLE20=Gone With Another Man
TTITLE21=Good Lovin'
EXTD=
EXTT0=
EXTT1=
EXTT2=
EXTT3=
EXTT4=
EXTT5=
EXTT6=
EXTT7=
EXTT8=
EXTT9=
EXTT10=
EXTT11=
EXTT12=
EXTT13=
EXTT14=
EXTT15=
EXTT16=
EXTT17=
EXTT18=
EXTT19=
EXTT20=
EXTT21=
PLAYORDER=
